<?xml version="1.0" encoding="iso-8859-1"?>
<!-- Generator: Adobe Illustrator 18.1.1, SVG Export Plug-In . SVG Version: 6.00 Build 0)  -->
<svg version="1.1" id="Capa_1" xmlns="http://www.w3.org/2000/svg" xmlns:xlink="http://www.w3.org/1999/xlink" x="0px" y="0px"
	 viewBox="0 0 316.108 316.108" style="enable-background:new 0 0 316.108 316.108;" xml:space="preserve">
<g>
	<path style="fill:#010002;" d="M291.061,61.725h-72.688c-4.95-28.86-30.078-50.899-60.319-50.899
		c-30.247,0-55.375,22.045-60.319,50.899H25.047C11.237,61.725,0,72.957,0,86.767v193.457c0,13.821,11.243,25.058,25.047,25.058
		h266.014c13.81,0,25.047-11.237,25.047-25.058V86.772C316.108,72.962,304.87,61.725,291.061,61.725z M158.054,31.544
		c18.765,0,34.549,12.836,39.145,30.181h-78.29C123.505,44.385,139.289,31.544,158.054,31.544z M118.909,82.448h78.29h21.18h24.688
		v202.116H71.464V82.448h26.271H118.909z M20.728,280.229V177.876v-20.864v-70.24c0-2.382,1.936-4.324,4.319-4.324H50.73v202.116
		H25.047C22.665,284.564,20.728,282.622,20.728,280.229z M295.379,156.566v20.864v102.798c0,2.388-1.936,4.335-4.319,4.335h-27.266
		V82.448h27.266c2.382,0,4.319,1.942,4.319,4.324V156.566z"/>
</g>
<g>
</g>
<g>
</g>
<g>
</g>
<g>
</g>
<g>
</g>
<g>
</g>
<g>
</g>
<g>
</g>
<g>
</g>
<g>
</g>
<g>
</g>
<g>
</g>
<g>
</g>
<g>
</g>
<g>
</g>
</svg>
